<?xml version="1.0"?>
<svg xmlns="http://www.w3.org/2000/svg" xmlns:xlink="http://www.w3.org/1999/xlink" version="1.1" id="Capa_1" x="0px" y="0px" viewBox="0 0 432.019 432.019" style="enable-background:new 0 0 432.019 432.019;" xml:space="preserve" width="512px" height="512px" class=""><g><g>
	<g>
		<g>
			<path d="M74.305,297.86c-17.1-2.9-33.3,8.7-36.2,25.8c-0.3,1.8-0.4,3.5-0.4,5.2c0,17.3,14.1,31.4,31.4,31.4     c17.4-0.1,31.4-14.1,31.4-31.4c0-1.8-0.1-3.5-0.4-5.2C97.905,310.46,87.505,300.06,74.305,297.86z" data-original="#000000" class="active-path" data-old_color="#000000" fill="#FFFFFF"/>
			<path d="M3.105,226.16c-1.9,0.8-3.2,2.8-3.1,4.9v75.5c0,0.2,0,0.4,0,0.6c0.1,2.7,2.3,4.7,5,4.6h15.4c5.2-15.1,17-26.8,32-32     c26.9-9.2,56.2,5.1,65.4,32h13.2v-99h-96.4L3.105,226.16z" data-original="#000000" class="active-path" data-old_color="#000000" fill="#FFFFFF"/>
			<path d="M130.905,147.96c0,0,0-0.1,0-0.2c-0.1-2.9-2.5-5.1-5.3-5h-47.7c-2,0-3.9,1.2-4.8,3l-24.2,47h82V147.96z" data-original="#000000" class="active-path" data-old_color="#000000" fill="#FFFFFF"/>
			<path d="M357.905,297.36c-15.4,0-28.5,11.1-31,26.3c-0.3,1.8-0.4,3.5-0.4,5.2c0,17.3,14.1,31.4,31.4,31.4     c17.3-0.1,31.4-14.1,31.4-31.5c0.1-1.6-0.1-3.2-0.3-4.8C386.505,308.66,373.405,297.46,357.905,297.36z" data-original="#000000" class="active-path" data-old_color="#000000" fill="#FFFFFF"/>
			<path d="M151.005,228.76h270v-157h-300v51h4.7c0.1,0,0.2,0,0.3,0c13.9,0.1,25.1,11.3,25,25.2V228.76z" data-original="#000000" class="active-path" data-old_color="#000000" fill="#FFFFFF"/>
			<path d="M427.005,248.76h-276v63h158.1c5.2-15.1,17-26.8,32-32c26.9-9.2,56.2,5.1,65.4,32h20.4c0.2,0,0.4,0,0.6,0     c2.7-0.2,4.7-2.5,4.5-5.1v-52.2C432.005,251.46,430.005,248.76,427.005,248.76z" data-original="#000000" class="active-path" data-old_color="#000000" fill="#FFFFFF"/>
		</g>
	</g>
</g></g> </svg>
