<?xml version="1.0"?>
<svg xmlns="http://www.w3.org/2000/svg" id="Capa_1" enable-background="new 0 0 512 512" height="512px" viewBox="0 0 512 512" width="512px"><g><g><path d="m362 207h-30v15c0 8.284-6.716 15-15 15s-15-6.716-15-15v-15h-30v90h90z" data-original="#000000" class="active-path" data-old_color="#000000" fill="#FFFFFF"/><path d="m415.787 407h-18.787v18.787z" data-original="#000000" class="active-path" data-old_color="#000000" fill="#FFFFFF"/><path d="m467 62v330c0 3.979-1.581 7.793-4.394 10.606l-70 70c-2.813 2.813-6.627 4.394-10.606 4.394h-200c-8.284 0-15-6.716-15-15v-400c-24.813 0-45 20.187-45 45v360c0 24.813 20.187 45 45 45h300c24.813 0 45-20.187 45-45v-360c0-24.813-20.187-45-45-45z" data-original="#000000" class="active-path" data-old_color="#000000" fill="#FFFFFF"/><path d="m367 392c0-8.284 6.716-15 15-15h55v-315h-15v35c0 24.813-20.187 45-45 45h-120c-24.813 0-45-20.187-45-45v-35h-15v385h170zm-125-200c0-8.284 6.716-15 15-15h120c8.284 0 15 6.716 15 15v120c0 8.284-6.716 15-15 15h-120c-8.284 0-15-6.716-15-15zm75 205h-60c-8.284 0-15-6.716-15-15s6.716-15 15-15h60c8.284 0 15 6.716 15 15s-6.716 15-15 15z" data-original="#000000" class="active-path" data-old_color="#000000" fill="#FFFFFF"/><path d="m257 112h120c8.284 0 15-6.716 15-15v-40c0-6.883-4.685-12.883-11.362-14.552l-28.638-7.16v-20.288c0-8.284-6.716-15-15-15h-40c-8.284 0-15 6.716-15 15v20.288l-28.638 7.16c-6.677 1.669-11.362 7.669-11.362 14.552v40c0 8.284 6.716 15 15 15z" data-original="#000000" class="active-path" data-old_color="#000000" fill="#FFFFFF"/><path d="m55 92h-5v-15c0-8.284-6.716-15-15-15s-15 6.716-15 15v15h-5c-8.284 0-15 6.716-15 15v65h70v-65c0-8.284-6.716-15-15-15z" data-original="#000000" class="active-path" data-old_color="#000000" fill="#FFFFFF"/><path d="m0 202h70v190h-70z" data-original="#000000" class="active-path" data-old_color="#000000" fill="#FFFFFF"/><path d="m20 479.101v17.899c0 8.284 6.716 15 15 15s15-6.716 15-15v-17.899l16.314-57.101h-62.628z" data-original="#000000" class="active-path" data-old_color="#000000" fill="#FFFFFF"/></g></g> </svg>
